# xmcd
#
# Track frame offsets:
#	150
#	17693
#	32465
#	44885
#	66372
#	84357
#	97484
#	115573
#	132098
#	150303
#	166139
#	186117
#	200808
#	217574
#	234552
#	248376
#	262403
#	277299
#	305256
#
# Disc length: 4223 seconds
#
# Revision: 2
# Processed by: cddbd v1.4PL0 Copyright (c) Steve Scherf et al.
# Submitted via: audiograbber 1.80
#
DISCID=07107d13
DTITLE=Various Artist - Hott Country 027
DYEAR=1900
DGENRE=
TTITLE0=Clint Black - Nothin' But The Taillights
TTITLE1=Faith Hill - This Kiss
TTITLE2=Randy Travis - Out Of My Bones
TTITLE3=Steve Wariner - Holes In the Floor Of Heaven
TTITLE4=John Michael Montgomery - Love Working On You
TTITLE5=Gary Allan - It Would Be You
TTITLE6=Kenny Chesney - That's Why I'm Here
TTITLE7=Mark Chesnutt - I Might Even Quit Lovin' You
TTITLE8=Keith Harding - Papa Bear
TTITLE9=Lila McCann - Almost Over You
TTITLE10=Bryan White - Bad Day To Let You Go
TTITLE11=Neal McCoy - Party On
TTITLE12=Kevin Sharp - Love Is All That Really Matters
TTITLE13=Chely Wright - I Already Do
TTITLE14=Shane Stockton - What If I'm Right
TTITLE15=George Fox - I'm Gone
TTITLE16=The Ranch - Just Some Love
TTITLE17=Nitty Gritty Dirt Band - Bang, Bang, Bang
TTITLE18=Data - Data Track
EXTD=
EXTT0=
EXTT1=
EXTT2=
EXTT3=
EXTT4=
EXTT5=
EXTT6=
EXTT7=
EXTT8=
EXTT9=
EXTT10=
EXTT11=
EXTT12=
EXTT13=
EXTT14=
EXTT15=
EXTT16=
EXTT17=
EXTT18=
PLAYORDER=
